/vscmnt/brussel_pixiu_data/_data_brussel/112/vsc11236/PredSimResults/SUBJ07_Falisse2022/SUBJ07_Falisse2022_11471716.mot
version=1
nRows=4
nColumns=124
inDegrees=yes
endheader
                time	         pelvis_tilt	         pelvis_list	     pelvis_rotation	           pelvis_tx	           pelvis_ty	           pelvis_tz	       hip_flexion_r	     hip_adduction_r	      hip_rotation_r	        knee_angle_r	       ankle_angle_r	    subtalar_angle_r	         mtp_angle_r	       hip_flexion_l	     hip_adduction_l	      hip_rotation_l	        knee_angle_l	       ankle_angle_l	    subtalar_angle_l	         mtp_angle_l	    lumbar_extension	      lumbar_bending	     lumbar_rotation	          arm_flex_r	           arm_add_r	           arm_rot_r	        elbow_flex_r	          arm_flex_l	           arm_add_l	           arm_rot_l	        elbow_flex_l	glut_med1_r/activation	glut_med2_r/activation	glut_med3_r/activation	glut_min1_r/activation	glut_min2_r/activation	glut_min3_r/activation	semimem_r/activation	semiten_r/activation	bifemlh_r/activation	bifemsh_r/activation	    sar_r/activation	add_long_r/activation	add_brev_r/activation	add_mag1_r/activation	add_mag2_r/activation	add_mag3_r/activation	    tfl_r/activation	   pect_r/activation	   grac_r/activation	glut_max1_r/activation	glut_max2_r/activation	glut_max3_r/activation	iliacus_r/activation	  psoas_r/activation	quad_fem_r/activation	    gem_r/activation	   peri_r/activation	rect_fem_r/activation	vas_med_r/activation	vas_int_r/activation	vas_lat_r/activation	med_gas_r/activation	lat_gas_r/activation	 soleus_r/activation	tib_post_r/activation	flex_dig_r/activation	flex_hal_r/activation	tib_ant_r/activation	per_brev_r/activation	per_long_r/activation	per_tert_r/activation	ext_dig_r/activation	ext_hal_r/activation	glut_med1_l/activation	glut_med2_l/activation	glut_med3_l/activation	glut_min1_l/activation	glut_min2_l/activation	glut_min3_l/activation	semimem_l/activation	semiten_l/activation	bifemlh_l/activation	bifemsh_l/activation	    sar_l/activation	add_long_l/activation	add_brev_l/activation	add_mag1_l/activation	add_mag2_l/activation	add_mag3_l/activation	    tfl_l/activation	   pect_l/activation	   grac_l/activation	glut_max1_l/activation	glut_max2_l/activation	glut_max3_l/activation	iliacus_l/activation	  psoas_l/activation	quad_fem_l/activation	    gem_l/activation	   peri_l/activation	rect_fem_l/activation	vas_med_l/activation	vas_int_l/activation	vas_lat_l/activation	med_gas_l/activation	lat_gas_l/activation	 soleus_l/activation	tib_post_l/activation	flex_dig_l/activation	flex_hal_l/activation	tib_ant_l/activation	per_brev_l/activation	per_long_l/activation	per_tert_l/activation	ext_dig_l/activation	ext_hal_l/activation	 ercspn_r/activation	 ercspn_l/activation	 intobl_r/activation	 intobl_l/activation	 extobl_r/activation	 extobl_l/activation	
          0.00000000	         -8.41062824	         -1.77745633	          3.09225522	          0.00000000	          0.84628241	         -0.00466332	         34.99894690	          2.96577377	          1.27889798	        -10.04074273	         14.81055280	         -5.83733473	          0.23009333	        -12.56454896	          0.75184034	          9.32340134	         -7.23940411	          3.05901363	         -1.58141631	         31.08287232	         -2.34306193	          0.13517593	         -1.44367427	        -15.75181187	        -13.74492892	         13.53923651	         17.68671723	         20.24087311	        -13.47314100	         19.35513734	         68.17639623	          0.01188863	          0.01106516	          0.01000199	          0.01002301	          0.01000374	          0.01467030	          0.14391992	          0.03556210	          0.03370014	          0.01000131	          0.01409024	          0.02796296	          0.13553388	          0.16951959	          0.09600231	          0.04172435	          0.01003088	          0.01680322	          0.07507726	          0.04277374	          0.01402241	          0.03464646	          0.01669114	          0.01669186	          0.18066311	          0.02171589	          0.01942834	          0.01669129	          0.07444706	          0.07434238	          0.06425668	          0.01000061	          0.01000117	          0.01054243	          0.02348443	          0.01589090	          0.01674955	          0.30316129	          0.26537325	          0.17946596	          0.11683175	          0.35730430	          0.16579291	          0.09977673	          0.07767164	          0.07024865	          0.14511322	          0.12689095	          0.10824928	          0.01316726	          0.01161531	          0.01200019	          0.03044191	          0.06527517	          0.04580718	          0.04190471	          0.04027366	          0.01663370	          0.01047492	          0.19345967	          0.01395098	          0.01968433	          0.01977664	          0.01683701	          0.01862439	          0.24112524	          0.33220474	          0.02134700	          0.02346462	          0.09517258	          0.13041280	          0.01019299	          0.01161698	          0.01186116	          0.20569023	          0.28024545	          0.28860461	          0.27763268	          0.33878106	          0.35305309	          0.01000054	          0.01000030	          0.01000013	          0.01000073	          0.01000029	          0.01000212	          0.03796751	          0.01475489	          0.02108481	          0.01416043	          0.07273372	          0.01000092	
          0.01117253	         -8.40060709	         -2.05622174	          3.37655080	          0.01610225	          0.84477698	         -0.00447675	         34.20275212	          3.31889787	          1.53776362	        -10.46691893	         14.07718552	         -6.21350300	          0.21764634	        -12.40044950	          0.45981781	          8.89104916	         -9.49176859	          2.83266751	         -1.01770910	         32.14929488	         -2.24767764	          0.61382106	         -1.48173761	        -16.72351355	        -13.75896863	         13.60499824	         17.29176987	         19.94070333	        -13.49325649	         19.30672076	         70.23312920	          0.13509322	          0.15829292	          0.01000104	          0.01000224	          0.01000165	          0.20727804	          0.12132770	          0.02998432	          0.04595432	          0.02783445	          0.01187993	          0.02357397	          0.11425844	          0.14290912	          0.08093275	          0.03517598	          0.01000531	          0.01417834	          0.06737614	          0.13466388	          0.01182238	          0.02920946	          0.01407117	          0.01407175	          0.23298219	          0.02637273	          0.15733142	          0.01407120	          0.06276074	          0.06267250	          0.05417000	          0.01634047	          0.01446276	          0.01408289	          0.01979793	          0.01339660	          0.01412044	          0.34319099	          0.25497904	          0.15129434	          0.13041799	          0.46117407	          0.13976792	          0.18432023	          0.06547898	          0.05922119	          0.12235816	          0.10697234	          0.09125667	          0.01110454	          0.01000335	          0.01011879	          0.02566328	          0.05502869	          0.07461497	          0.03532831	          0.03395363	          0.01403344	          0.01003677	          0.16309116	          0.01195819	          0.01659576	          0.01667540	          0.01419663	          0.01570231	          0.20327396	          0.28005600	          0.01799614	          0.01978177	          0.08023264	          0.10994095	          0.01000271	          0.01000267	          0.01000267	          0.17340138	          0.23625315	          0.27347180	          0.23771854	          0.28561477	          0.29776290	          0.01000029	          0.01000140	          0.01000314	          0.01000110	          0.01000036	          0.01000152	          0.03925626	          0.02650883	          0.02446647	          0.01193757	          0.06131615	          0.01000021	
          0.02234506	         -8.38959803	         -2.32677290	          3.64196725	          0.03221388	          0.84332627	         -0.00425689	         33.36908825	          3.64865356	          1.80738452	        -10.84038775	         13.32765929	         -6.58834727	          0.22131408	        -12.11249506	          0.16940164	          8.45815223	        -11.94684505	          2.55323144	         -0.44296215	         32.92740947	         -2.16032923	          1.09133242	         -1.51305974	        -17.55350618	        -13.76071376	         13.87624967	         16.77547572	         19.57245817	        -13.51421651	         19.24530816	         72.11850581	          0.19896563	          0.25277994	          0.24645877	          0.09963478	          0.17174675	          0.17474320	          0.10228194	          0.04967849	          0.03874100	          0.02346550	          0.01001560	          0.01987366	          0.09632265	          0.12047666	          0.08071978	          0.05879573	          0.01000181	          0.01195603	          0.05775391	          0.17530906	          0.09812821	          0.06621994	          0.01186239	          0.01186288	          0.19644756	          0.02224377	          0.13263533	          0.01186243	          0.05291188	          0.05283806	          0.04567019	          0.01377541	          0.01219248	          0.01187219	          0.01669012	          0.01129379	          0.01190399	          0.43818549	          0.30696223	          0.16595913	          0.41529785	          0.48890855	          0.29085413	          0.17258971	          0.05520031	          0.04992481	          0.16800080	          0.09018056	          0.07693155	          0.02888726	          0.01002634	          0.01000351	          0.02163480	          0.04639064	          0.08464865	          0.02978450	          0.02862604	          0.01188771	          0.02672380	          0.13749049	          0.01008771	          0.01399200	          0.01406133	          0.01197190	          0.01323988	          0.17136452	          0.23609366	          0.01517128	          0.01667706	          0.06763796	          0.09356728	          0.02607368	          0.02602179	          0.01722379	          0.14618117	          0.19916665	          0.24795095	          0.22561440	          0.24674309	          0.26777791	          0.01000046	          0.01001057	          0.01000756	          0.01000242	          0.01000072	          0.01000274	          0.07312835	          0.04883007	          0.02062633	          0.01006366	          0.05169088	          0.01000019	
          0.03351759	         -8.37850229	         -2.58342003	          3.88795441	          0.04818200	          0.84213127	         -0.00399605	         32.59023030	          3.98478810	          2.07944022	        -11.25717109	         12.45606174	         -6.95096315	          0.21669963	        -11.68966953	         -0.11793683	          8.03501913	        -14.58559400	          2.20147474	          0.14463644	         33.26870279	         -2.08688248	          1.56057579	         -1.53901218	        -18.20406860	        -13.74090396	         14.31028555	         16.13607989	         19.16615638	        -13.52800021	         19.18674213	         73.75035690	          0.25804917	          0.31391888	          0.31953894	          0.10485241	          0.14481470	          0.17783511	          0.08622596	          0.05203356	          0.03696499	          0.01978222	          0.01000177	          0.01675436	          0.08120259	          0.10156711	          0.09142042	          0.07597347	          0.01000205	          0.01009300	          0.04869848	          0.20951474	          0.13101089	          0.08543996	          0.01000061	          0.01000092	          0.16840213	          0.01875629	          0.11181670	          0.01000064	          0.11525496	          0.11556026	          0.10184950	          0.01161302	          0.01027866	          0.01000855	          0.01407038	          0.01000605	          0.01003649	          0.50165165	          0.31477039	          0.16656894	          0.45323545	          0.52663107	          0.29193578	          0.17117222	          0.04653515	          0.04208775	          0.14993523	          0.07602467	          0.06485515	          0.02439732	          0.01008485	          0.01006929	          0.01823871	          0.03910858	          0.07140216	          0.10110017	          0.02413950	          0.01179436	          0.03991424	          0.11590817	          0.01002524	          0.01179901	          0.01185918	          0.01010088	          0.01116742	          0.14446412	          0.19903225	          0.01278988	          0.01405980	          0.05702036	          0.07887949	          0.03304245	          0.03148121	          0.02618894	          0.12323394	          0.16790191	          0.21857472	          0.20700672	          0.20801374	          0.22574807	          0.01000065	          0.01000261	          0.01486352	          0.01000258	          0.01000079	          0.01000326	          0.08508482	          0.07483094	          0.01738856	          0.01000010	          0.04357658	          0.01000012	
